<?xml version="1.0" encoding="utf-8"?>
<!-- Svg Vector Icons : http://www.onlinewebfonts.com/icon -->
<!DOCTYPE svg PUBLIC "-//W3C//DTD SVG 1.1//EN" "http://www.w3.org/Graphics/SVG/1.1/DTD/svg11.dtd">
<svg version="1.1" xmlns="http://www.w3.org/2000/svg" xmlns:xlink="http://www.w3.org/1999/xlink" x="0px" y="0px" viewBox="0 0 256 256" enable-background="new 0 0 256 256" xml:space="preserve">
<metadata> Svg Vector Icons : http://www.onlinewebfonts.com/icon </metadata>
<g><g><g><path fill="#FFFFFF" d="M61,10.4c0.4,0.2,7.8,3.7,16.5,7.8l15.7,7.3l50.4,0.2l50.4,0.2l1.5,1.1c3.4,2.4,3.1-3.7,3.1,81.3c0,85.1,0.2,78.9-3.1,81.3c-1.5,1.1-1.7,1.1-22.8,1.2l-21.3,0.1v7.8v7.9h19.8c11.1,0,21.2-0.2,23-0.5c10.1-1.6,18.1-9.6,19.7-19.7c0.7-4.4,0.7-152.1,0-156.5c-1.6-10.1-9.6-18.1-19.7-19.7C190.4,9.9,60,9.8,61,10.4z"/><path fill="#000000" d="M49.6,18.6c-2.4,0.8-3.5,1.9-5.1,4.5c-3,5.1-2.8,0.2-3,82.3c-0.1,75.8,0,80.2,1.6,86.9c2.1,8.1,7.6,16.2,13,18.9c5.9,3,73.7,34.1,75.2,34.5c2.1,0.6,5.1-0.2,7-1.9c2.3-1.9,4.4-6.7,5-11.5c0.4-2.9,0.5-27.9,0.4-79.7l-0.1-75.5l-1.3-4.8c-2.6-9.3-7.6-16.8-13.1-19.6c-8.5-4.2-74.4-34.3-75.8-34.6C52.2,18.1,50.7,18.2,49.6,18.6z M113.8,121.1c1.9,1.3,3.6,3.7,4.8,6.9c1.3,3.3,1.6,10.4,0.5,12.4c-2.2,4-5.1,4.6-8.4,1.7c-5.6-5.1-6.9-18.6-2.1-21.4C110,120,112.4,120.2,113.8,121.1z"/></g></g></g>
</svg>